<svg xmlns="http://www.w3.org/2000/svg" version="1.0" width="1024.000000pt" height="1024.000000pt" viewBox="0 0 1024.000000 1024.000000" preserveAspectRatio="xMidYMid meet">

<g transform="translate(0.000000,1024.000000) scale(0.100000,-0.100000)" fill="#fafaf9" stroke="none">
<path d="M4872 7597 c-188 -188 -342 -349 -342 -358 0 -30 23 -39 103 -39 l79 0 265 262 264 262 259 -259 259 -259 84 -4 c83 -4 85 -4 103 23 l18 27 -346 344 c-295 295 -349 344 -374 344 -25 0 -78 -49 -372 -343z" fill="#fafaf9"/>
<path d="M5217 7433 c-4 -3 -7 -21 -7 -40 0 -30 -3 -33 -29 -33 -44 0 -61 -10 -61 -35 0 -25 17 -35 60 -35 26 0 29 -4 32 -37 3 -35 6 -38 33 -38 27 0 30 3 33 38 3 35 5 37 38 37 38 0 54 21 37 49 -10 16 -14 18 -59 20 -23 1 -26 4 -21 28 3 15 3 33 0 40 -5 13 -45 18 -56 6z" fill="#fafaf9"/>
<path d="M7123 7200 c-22 -20 -23 -29 -23 -154 0 -160 4 -166 96 -166 33 0 65 5 72 12 8 8 12 46 12 105 l0 93 45 0 45 0 0 -88 c0 -109 10 -122 92 -122 83 0 88 9 88 162 0 181 11 172 -222 176 -174 3 -184 2 -205 -18z" fill="#fafaf9"/>
<path d="M3747 7000 c-65 -8 -100 -29 -135 -81 l-24 -34 4 -1037 4 -1036 25 -36 c47 -71 -82 -66 1622 -66 1526 0 1540 0 1572 20 69 43 65 -23 65 1114 0 850 -2 1032 -14 1059 -17 41 -61 81 -105 96 -38 12 -2914 14 -3014 1z m1522 -114 c22 -26 -10 -63 -44 -50 -15 6 -21 45 -8 57 11 12 40 8 52 -7z m1358 -128 l23 -21 0 -888 0 -888 -22 -15 c-20 -14 -169 -16 -1397 -16 -1297 0 -1375 1 -1387 18 -11 14 -13 182 -14 905 0 874 0 887 20 907 20 20 33 20 1387 20 l1367 0 23 -22z m-1359 -1900 c28 -28 1 -75 -37 -63 -25 8 -34 31 -21 56 12 21 40 25 58 7z" fill="#fafaf9"/>
<path d="M5384 6559 c-17 -19 -19 -43 -24 -277 l-5 -257 -70 -12 c-38 -7 -91 -16 -117 -19 l-48 -7 0 225 c0 207 -2 228 -19 249 -16 20 -28 24 -76 24 -102 0 -95 49 -95 -652 l0 -604 25 -24 c34 -35 101 -35 139 0 l26 24 0 291 c0 159 3 290 8 290 4 0 57 9 117 20 61 11 111 20 113 20 1 0 2 -113 2 -250 l0 -251 26 -24 c37 -34 89 -33 129 1 l30 26 3 589 2 589 -24 25 c-34 34 -113 36 -142 4z" fill="#fafaf9"/>
<path d="M2890 6805 c-10 -18 -14 -66 -14 -151 -1 -153 3 -158 102 -151 35 3 66 8 70 12 4 3 9 50 12 103 l5 97 40 0 40 0 3 -94 c1 -52 8 -101 14 -108 15 -18 118 -16 142 2 16 12 20 32 24 139 4 106 2 129 -12 151 l-16 25 -199 0 -198 0 -13 -25z" fill="#fafaf9"/>
<path d="M7520 6561 c-63 -19 -108 -57 -298 -245 l-202 -201 0 -107 c0 -60 3 -108 8 -108 4 0 32 26 62 57 30 32 123 128 207 213 l152 156 251 -251 251 -251 -193 -190 c-106 -105 -316 -309 -465 -454 l-273 -263 0 -43 c0 -47 27 -86 72 -103 49 -19 5 -58 694 619 204 202 361 364 376 390 57 98 74 230 41 326 -31 92 -423 468 -469 450 -8 -3 -16 -1 -19 4 -7 12 -158 12 -195 1z m152 -160 c13 -5 101 -85 196 -178 l172 -169 0 -61 c0 -34 -4 -64 -8 -67 -10 -6 -493 469 -485 478 10 9 99 7 125 -3z" fill="#fafaf9"/>
<path d="M2076 6464 c-19 -19 -19 -10 1 -75 9 -30 17 -56 18 -59 1 -3 4 -12 8 -20 8 -21 27 -84 32 -106 2 -10 9 -32 15 -49 5 -16 29 -84 51 -150 73 -215 88 -254 104 -278 8 -13 142 -145 297 -293 550 -526 689 -654 722 -662 50 -14 101 13 121 63 28 66 23 73 -293 388 -557 554 -585 580 -620 592 l-34 12 57 7 c55 6 59 5 99 -28 22 -18 137 -128 255 -242 117 -115 217 -211 222 -215 5 -3 77 -72 161 -155 l153 -149 3 68 c3 58 0 72 -20 96 -13 16 -188 189 -390 386 -401 389 -414 405 -321 405 43 0 50 -4 102 -58 31 -32 185 -183 343 -335 l286 -277 4 71 3 70 -302 301 c-167 165 -304 303 -304 307 -1 3 -2 27 -3 54 l-2 48 76 -73 c41 -41 125 -121 185 -178 61 -58 162 -154 225 -215 l115 -110 3 103 3 103 -83 83 c-194 194 -459 448 -465 443 -3 -3 -16 -2 -28 3 -13 5 -45 11 -72 14 -54 6 -156 24 -348 62 -71 14 -141 27 -155 29 -14 2 -58 11 -98 19 -92 20 -107 20 -126 0z m459 -184 c196 -33 201 -35 198 -93 -1 -23 -2 -50 -2 -59 -1 -16 -12 -18 -86 -18 l-85 0 0 -80 0 -80 -85 0 c-50 0 -85 -4 -85 -10 0 -5 -6 -10 -12 -10 -7 0 -24 35 -38 77 -13 42 -31 88 -38 102 -7 14 -15 43 -18 66 -5 38 -3 42 46 83 29 23 59 42 69 42 9 0 70 -9 136 -20z" fill="#fafaf9"/>
<path d="M7187 5915 l-172 -176 3 -70 4 -69 171 164 172 164 37 -30 c21 -16 38 -33 38 -37 0 -4 -94 -99 -210 -210 l-210 -203 0 -82 0 -81 108 105 c266 261 403 383 414 372 9 -9 -53 -76 -261 -280 l-273 -267 3 -60 c1 -33 4 -67 6 -75 3 -11 45 25 131 110 70 69 225 219 345 334 119 114 217 213 217 219 0 12 -306 324 -333 339 -16 8 -44 -16 -190 -167z" fill="#fafaf9"/>
<path d="M2560 5031 c-5 -11 -10 -58 -10 -104 0 -109 13 -128 85 -128 72 -1 101 13 109 51 10 55 7 175 -6 188 -7 7 -43 12 -90 12 -66 0 -79 -3 -88 -19z" fill="#fafaf9"/>
<path d="M7747 5043 c-9 -9 -9 -205 1 -219 27 -41 121 -46 157 -9 23 22 25 32 25 118 0 59 -4 97 -12 105 -13 13 -159 17 -171 5z" fill="#fafaf9"/>
<path d="M2815 4814 c-50 -30 -98 -59 -108 -64 -16 -10 -5 -20 84 -75 136 -85 139 -84 139 69 0 84 -3 115 -13 119 -7 3 -53 -19 -102 -49z" fill="#fafaf9"/>
<path d="M7552 4852 c-9 -6 -12 -37 -10 -118 l3 -109 28 2 c29 2 207 99 207 113 0 9 -191 120 -206 120 -5 0 -15 -4 -22 -8z" fill="#fafaf9"/>
<path d="M2584 4682 c-25 -16 -34 -55 -34 -139 0 -56 4 -93 12 -101 7 -7 41 -12 83 -12 42 0 76 5 83 12 8 8 12 48 12 114 0 95 -2 104 -22 118 -23 16 -114 22 -134 8z" fill="#fafaf9"/>
<path d="M7767 4674 l-28 -15 3 -112 3 -112 78 -3 c50 -2 84 1 93 9 10 8 14 36 14 101 0 85 -9 124 -34 140 -19 13 -100 8 -129 -8z" fill="#fafaf9"/>
<path d="M3499 4609 c-17 -4 -45 -17 -63 -30 -89 -65 -387 -299 -425 -333 -41 -38 -43 -43 -38 -84 8 -70 59 -125 133 -142 23 -6 909 -10 2125 -10 1750 0 2093 2 2132 14 104 31 163 119 126 188 -15 27 -49 57 -281 241 -110 86 -207 157 -216 157 -2406 4 -3468 4 -3493 -1z m3449 -136 c15 -9 42 -30 60 -45 l33 -28 -1801 0 c-990 0 -1800 2 -1800 4 0 3 25 23 57 45 l56 41 1684 0 c1570 0 1686 -1 1711 -17z m-1308 -199 c0 -3 -21 -37 -47 -74 l-48 -69 -310 -1 -310 0 -43 69 c-23 37 -42 71 -42 75 0 3 180 6 400 6 220 0 400 -3 400 -6z m-861 -93 c12 -16 21 -33 21 -38 0 -14 -1629 -14 -1669 0 -47 16 -48 29 -3 49 33 14 116 16 834 17 l797 1 20 -29z m2568 12 c24 -10 43 -20 43 -23 0 -4 -16 -12 -36 -19 -29 -10 -212 -14 -860 -16 -453 -2 -824 -1 -824 2 0 4 11 21 26 40 l25 33 792 0 c731 0 795 -1 834 -17z" fill="#fafaf9"/>
<path d="M2300 3913 c-73 -12 -141 -73 -160 -143 -7 -27 -10 -206 -8 -542 3 -459 5 -506 21 -535 27 -51 77 -103 112 -117 26 -11 369 -14 1866 -16 3247 -5 4006 -2 4041 16 39 20 75 59 99 106 18 35 19 66 19 566 l0 529 -29 40 c-36 50 -74 77 -126 92 -29 8 -841 11 -2925 10 -1587 -1 -2896 -4 -2910 -6z m3345 -157 c49 -15 175 -97 175 -113 -1 -5 -21 -30 -45 -56 l-44 -48 -57 38 c-52 35 -63 38 -123 37 -102 -1 -161 -44 -161 -118 0 -72 47 -103 205 -140 84 -19 133 -44 186 -96 68 -67 83 -110 77 -220 -5 -78 -22 -121 -69 -176 -92 -109 -308 -129 -459 -41 -44 25 -130 107 -130 123 0 15 74 94 88 94 5 0 17 -9 27 -20 10 -11 43 -36 72 -56 93 -62 216 -58 288 10 31 29 35 39 35 81 0 56 -28 108 -70 130 -25 13 -98 36 -225 70 -16 4 -52 22 -80 40 -123 78 -136 261 -27 378 71 76 228 114 337 83z m-829 -20 c55 -25 124 -81 124 -100 0 -6 -18 -29 -41 -51 -40 -39 -40 -39 -67 -22 -78 49 -165 67 -221 46 -40 -16 -80 -59 -87 -95 -10 -53 38 -118 96 -129 87 -17 217 -60 258 -85 120 -73 164 -235 101 -367 -96 -200 -425 -225 -591 -45 -27 28 -48 55 -48 59 0 5 20 28 45 53 l44 43 42 -38 c83 -75 189 -101 279 -69 110 40 136 158 51 232 -26 22 -191 78 -218 73 -9 -1 -122 54 -137 67 -42 37 -66 91 -72 159 -9 111 33 197 122 249 59 34 91 42 189 43 64 1 90 -4 131 -23z m-1711 -486 l0 -475 -55 -1 c-30 -1 -61 3 -67 8 -10 8 -13 63 -13 214 l0 204 -186 0 -187 0 5 -205 c4 -146 2 -207 -6 -214 -13 -11 -105 -9 -123 2 -10 6 -13 110 -13 462 0 518 -5 488 84 483 l51 -3 5 -185 5 -185 183 -3 182 -2 0 179 c0 131 3 181 13 189 16 14 55 19 92 12 l30 -6 0 -474z m694 482 c11 -2 58 -99 66 -137 2 -5 19 -46 40 -90 20 -44 54 -123 76 -175 22 -52 51 -118 64 -147 24 -49 39 -85 46 -108 1 -5 19 -46 39 -90 21 -44 45 -104 55 -134 16 -50 17 -55 1 -66 -13 -10 -63 -12 -118 -6 -7 1 -68 123 -68 136 0 4 -10 29 -21 56 l-21 49 -207 0 -206 0 -45 -120 c-24 -66 -46 -121 -49 -121 -3 -1 -29 -3 -58 -4 -40 -2 -57 3 -73 17 -18 17 -18 21 -6 41 7 12 17 36 21 52 5 17 9 32 10 35 1 3 9 23 19 45 10 22 30 72 46 110 24 59 59 141 100 230 5 11 21 49 36 85 56 138 137 316 150 331 12 13 60 18 103 11z m2737 -14 c9 -9 35 -60 59 -114 23 -55 64 -146 89 -204 26 -58 53 -121 61 -140 7 -19 28 -69 47 -110 37 -79 122 -280 124 -292 1 -5 2 -9 3 -10 2 -2 4 -14 7 -27 7 -38 -11 -50 -73 -48 -45 2 -58 7 -74 27 -10 14 -19 31 -19 37 0 7 -10 34 -21 60 -12 27 -29 65 -38 86 l-16 37 -205 -2 -205 -3 -45 -112 c-25 -62 -48 -115 -53 -119 -4 -4 -32 -8 -62 -9 -42 -2 -58 2 -71 16 -16 18 -15 23 14 86 17 38 61 140 97 228 37 88 80 187 95 220 15 33 46 105 70 160 61 145 70 166 86 203 8 18 23 36 34 40 33 12 79 8 96 -10z m1374 2 c12 -8 15 -78 18 -477 l4 -468 -23 20 c-36 30 -244 220 -329 300 -163 153 -303 280 -318 289 -14 8 -15 -22 -9 -292 5 -230 4 -303 -5 -309 -20 -12 -118 -10 -129 3 -5 7 -8 191 -7 474 l3 463 70 -63 c39 -34 108 -99 155 -144 74 -72 235 -222 379 -353 25 -23 49 -42 54 -43 4 0 7 132 7 293 0 215 3 296 12 305 14 14 97 16 118 2z" fill="#fafaf9"/>
<path d="M3682 3337 c-34 -83 -62 -155 -62 -159 0 -4 59 -8 130 -10 72 -2 130 0 130 4 0 4 -6 22 -14 40 -8 18 -25 60 -37 93 -24 65 -77 185 -81 185 -2 0 -31 -69 -66 -153z" fill="#fafaf9"/>
<path d="M6462 3439 c-13 -29 -27 -63 -31 -74 -4 -11 -18 -42 -31 -70 -12 -27 -24 -59 -26 -69 -2 -11 -8 -24 -14 -30 -22 -22 -5 -26 119 -26 118 0 130 2 126 18 -5 25 -30 89 -56 147 -12 28 -23 55 -24 61 -2 6 -11 30 -22 54 l-19 44 -22 -55z" fill="#fafaf9"/>
<path d="M4535 2370 c-3 -6 -4 -18 -1 -28 10 -30 679 -691 703 -694 18 -2 97 71 373 346 192 192 350 354 350 361 0 20 -24 25 -118 25 l-86 0 -256 -255 -255 -254 -258 254 -258 255 -94 0 c-52 0 -97 -4 -100 -10z" fill="#fafaf9"/>
<path d="M5217 2373 c-4 -3 -7 -21 -7 -39 0 -31 -2 -33 -42 -36 -40 -3 -43 -5 -43 -33 0 -28 3 -30 43 -33 40 -3 42 -5 42 -36 0 -30 15 -56 31 -56 18 0 39 34 39 61 0 25 4 29 28 29 38 0 54 13 50 41 -2 20 -9 24 -45 27 -43 3 -43 3 -43 43 0 34 -3 39 -23 39 -13 0 -27 -3 -30 -7z" fill="#fafaf9"/>
</g>
</svg>